<svg width="580" height="387" viewBox="0 0 180 87" fill="none" xmlns="http://www.w3.org/2000/svg">
<path d="M9.15488 74.3359H10.7955L13.879 82.561L16.9552 74.3359H18.5958L14.5235 85H13.2198L9.15488 74.3359ZM8.40781 74.3359H9.96787L10.2389 81.4551V85H8.40781V74.3359ZM17.7828 74.3359H19.3502V85H17.5118V81.4551L17.7828 74.3359ZM38.1128 83.5425V85H32.4512V83.5425H38.1128ZM32.9712 74.3359V85H31.1328V74.3359H32.9712ZM37.373 78.7891V80.2246H32.4512V78.7891H37.373ZM38.0762 74.3359V75.8008H32.4512V74.3359H38.0762ZM49.2143 74.3359H52.9862C53.7968 74.3359 54.4877 74.458 55.059 74.7021C55.6303 74.9463 56.0673 75.3076 56.37 75.7861C56.6776 76.2598 56.8314 76.8457 56.8314 77.5439C56.8314 78.0762 56.7338 78.5449 56.5385 78.9502C56.3432 79.3555 56.0673 79.6973 55.7108 79.9756C55.3544 80.249 54.9296 80.4614 54.4364 80.6128L53.8798 80.8838H50.4887L50.474 79.4263H53.0155C53.455 79.4263 53.8212 79.3481 54.1142 79.1919C54.4071 79.0356 54.6269 78.8232 54.7733 78.5547C54.9247 78.2812 55.0004 77.9736 55.0004 77.6318C55.0004 77.2607 54.9272 76.9385 54.7807 76.665C54.6391 76.3867 54.4193 76.1743 54.1215 76.0278C53.8236 75.8765 53.4452 75.8008 52.9862 75.8008H51.0526V85H49.2143V74.3359ZM55.3007 85L52.7958 80.21L54.7221 80.2026L57.2636 84.9048V85H55.3007ZM74.5613 81.5283H76.3924C76.3338 82.2266 76.1385 82.8491 75.8064 83.396C75.4744 83.938 75.0081 84.3652 74.4075 84.6777C73.8069 84.9902 73.077 85.1465 72.2176 85.1465C71.5584 85.1465 70.9651 85.0293 70.4378 84.7949C69.9105 84.5557 69.4588 84.2188 69.0828 83.7842C68.7068 83.3447 68.4188 82.8149 68.2186 82.1948C68.0232 81.5747 67.9256 80.8813 67.9256 80.1147V79.2285C67.9256 78.4619 68.0257 77.7686 68.2259 77.1484C68.431 76.5283 68.7239 75.9985 69.1048 75.5591C69.4856 75.1147 69.9422 74.7754 70.4744 74.541C71.0115 74.3066 71.6146 74.1895 72.2835 74.1895C73.1331 74.1895 73.8509 74.3457 74.4368 74.6582C75.0228 74.9707 75.4769 75.4028 75.7991 75.9546C76.1263 76.5063 76.3265 77.1387 76.3997 77.8516H74.5687C74.5198 77.3926 74.4124 76.9995 74.2464 76.6724C74.0853 76.3452 73.846 76.0962 73.5286 75.9253C73.2112 75.7495 72.7962 75.6616 72.2835 75.6616C71.8636 75.6616 71.4974 75.7397 71.1849 75.896C70.8724 76.0522 70.6111 76.2817 70.4012 76.5845C70.1912 76.8872 70.0325 77.2607 69.9251 77.7051C69.8226 78.1445 69.7713 78.6475 69.7713 79.2139V80.1147C69.7713 80.6519 69.8177 81.1401 69.9105 81.5796C70.0081 82.0142 70.1546 82.3877 70.3499 82.7002C70.5501 83.0127 70.804 83.2544 71.1116 83.4253C71.4192 83.5962 71.7879 83.6816 72.2176 83.6816C72.74 83.6816 73.1624 83.5986 73.4847 83.4326C73.8118 83.2666 74.0584 83.0249 74.2244 82.7075C74.3953 82.3853 74.5076 81.9922 74.5613 81.5283ZM94.7082 78.7891V80.2466H89.0466V78.7891H94.7082ZM89.5007 74.3359V85H87.6623V74.3359H89.5007ZM96.1218 74.3359V85H94.2907V74.3359H96.1218ZM112.196 75.7568L109.01 85H107.084L111.098 74.3359H112.328L112.196 75.7568ZM114.862 85L111.669 75.7568L111.53 74.3359H112.768L116.796 85H114.862ZM114.709 81.0449V82.5024H108.908V81.0449H114.709ZM136.049 74.3359V85H134.211L129.428 77.3608V85H127.59V74.3359H129.428L134.226 81.9897V74.3359H136.049ZM152.007 74.3359V85H150.183V74.3359H152.007ZM155.354 74.3359V75.8008H146.865V74.3359H155.354Z" fill="#E4FE5F"/>
<circle cx="30" cy="30" r="25.5" stroke="#E4FE5F" stroke-width="9"/>
<line x1="72.5" y1="3" x2="72.5" y2="57" stroke="#E4FE5F" stroke-width="9"/>
<line x1="108" y1="53.5" x2="68" y2="53.5" stroke="#E4FE5F" stroke-width="9"/>
<rect x="120.5" y="6.5" width="35" height="48" stroke="#E4FE5F" stroke-width="9"/>
<circle cx="172" cy="10" r="7" stroke="#E4FE5F" stroke-width="2"/>
<path d="M169.819 13V6.45455H172.152C172.659 6.45455 173.08 6.5419 173.414 6.71662C173.751 6.89133 174.002 7.13317 174.169 7.44212C174.335 7.74893 174.418 8.10369 174.418 8.50639C174.418 8.90696 174.334 9.25959 174.165 9.56428C173.999 9.86683 173.748 10.1023 173.411 10.2706C173.077 10.4389 172.656 10.5231 172.149 10.5231H170.381V9.67294H172.059C172.379 9.67294 172.639 9.62713 172.839 9.53551C173.041 9.44389 173.189 9.31072 173.283 9.13601C173.377 8.96129 173.424 8.75142 173.424 8.50639C173.424 8.25923 173.376 8.0451 173.28 7.86399C173.186 7.68288 173.038 7.54439 172.836 7.44851C172.635 7.3505 172.372 7.30149 172.046 7.30149H170.806V13H169.819ZM173.05 10.0469L174.667 13H173.542L171.957 10.0469H173.05Z" fill="#E4FE5F"/>
</svg>
